<?xml version="1.0" encoding="UTF-8" standalone="no"?>
<!-- Generator: Adobe Illustrator 25.0.0, SVG Export Plug-In . SVG Version: 6.00 Build 0)  -->

<svg
   version="1.1"
   id="Capa_1"
   x="0px"
   y="0px"
   viewBox="0 0 512.021 512.021"
   style="enable-background:new 0 0 512.021 512.021;"
   xml:space="preserve"
   width="16"
   height="16"
   sodipodi:docname="cross.svg"
   inkscape:version="1.3.2 (091e20e, 2023-11-25, custom)"
   xmlns:inkscape="http://www.inkscape.org/namespaces/inkscape"
   xmlns:sodipodi="http://sodipodi.sourceforge.net/DTD/sodipodi-0.dtd"
   xmlns="http://www.w3.org/2000/svg"
   xmlns:svg="http://www.w3.org/2000/svg"><defs
   id="defs9" /><sodipodi:namedview
   id="namedview7"
   pagecolor="#ffffff"
   bordercolor="#000000"
   borderopacity="0.25"
   inkscape:showpageshadow="2"
   inkscape:pageopacity="0.0"
   inkscape:pagecheckerboard="0"
   inkscape:deskcolor="#d1d1d1"
   showgrid="false"
   inkscape:zoom="36.813746"
   inkscape:cx="8.5022589"
   inkscape:cy="8.7874784"
   inkscape:window-width="1920"
   inkscape:window-height="1009"
   inkscape:window-x="-8"
   inkscape:window-y="-8"
   inkscape:window-maximized="1"
   inkscape:current-layer="g4" />
<g
   id="g4">
	<path
   d="M 297.2555,256.01005 480.82826,72.457349 c 11.39519,-11.39519 11.39519,-29.870328 0,-41.264606 -11.39519,-11.395189 -29.87033,-11.395189 -41.26461,0 v 0 L 256.01004,214.76458 72.457342,31.192743 c -11.39519,-11.395189 -29.870328,-11.395189 -41.264606,0 -11.394278,11.39519 -11.395189,29.870328 0,41.264606 L 214.76458,256.01005 31.192736,439.56366 c -11.395189,11.39518 -11.395189,29.87032 0,41.2646 11.39519,11.39428 29.870328,11.3952 41.264606,0 L 256.01004,297.25551 439.56274,480.82826 c 11.39519,11.3952 29.87033,11.3952 41.26461,0 11.39518,-11.39518 11.39518,-29.87032 0,-41.2646 z"
   id="path2"
   style="fill:#ff7f7f;fill-opacity:1;fill-rule:evenodd;stroke:#ff7f7f;stroke-width:45.579;stroke-dasharray:none;stroke-opacity:1" />
</g>















</svg>
