<?xml version="1.0" encoding="UTF-8" standalone="no"?>
<!-- Generator: Adobe Illustrator 25.0.0, SVG Export Plug-In . SVG Version: 6.00 Build 0)  -->

<svg
   version="1.1"
   id="Capa_1"
   x="0px"
   y="0px"
   viewBox="0 0 512.021 512.021"
   style="enable-background:new 0 0 512.021 512.021;"
   xml:space="preserve"
   width="16"
   height="16"
   sodipodi:docname="plus.svg"
   inkscape:version="1.3.2 (091e20e, 2023-11-25, custom)"
   xmlns:inkscape="http://www.inkscape.org/namespaces/inkscape"
   xmlns:sodipodi="http://sodipodi.sourceforge.net/DTD/sodipodi-0.dtd"
   xmlns="http://www.w3.org/2000/svg"
   xmlns:svg="http://www.w3.org/2000/svg"><defs
   id="defs9" /><sodipodi:namedview
   id="namedview7"
   pagecolor="#ffffff"
   bordercolor="#000000"
   borderopacity="0.25"
   inkscape:showpageshadow="2"
   inkscape:pageopacity="0.0"
   inkscape:pagecheckerboard="0"
   inkscape:deskcolor="#d1d1d1"
   showgrid="false"
   inkscape:zoom="52.062499"
   inkscape:cx="6.8763507"
   inkscape:cy="7.3085235"
   inkscape:window-width="1920"
   inkscape:window-height="1009"
   inkscape:window-x="-8"
   inkscape:window-y="-8"
   inkscape:window-maximized="1"
   inkscape:current-layer="g4" />
<g
   id="g4">
	<path
   d="m 277.92363,234.09714 0.0106,-195.050508 c 0,-12.108328 -9.81569,-21.924007 -21.92355,-21.923522 -12.10834,0 -21.92403,9.815679 -21.92354,21.923525 v 0 l 0.01,195.050505 -195.050226,-0.0101 c -12.10834,0 -21.924028,9.81568 -21.923544,21.92352 4.83e-4,12.10785 9.815687,21.92401 21.923539,21.92353 l 195.050241,-0.0102 -0.01,195.05052 c 0,12.10832 9.81567,21.924 21.92353,21.92352 12.10786,-4.8e-4 21.92404,-9.81568 21.92355,-21.92352 l -0.0106,-195.05052 195.05072,0.0106 c 12.10834,1e-5 21.92404,-9.81568 21.92354,-21.92354 0,-12.10831 -9.81568,-21.92398 -21.92354,-21.9235 z"
   id="path2"
   style="fill:#87ff92;fill-opacity:1;fill-rule:evenodd;stroke:#87ff92;stroke-width:34.24640458;stroke-dasharray:none;stroke-opacity:1" />
</g>















</svg>
