<?xml version="1.0" encoding="UTF-8" standalone="no"?>
<svg
   viewBox="0 0 36 36"
   width="24"
   height="24"
   version="1.1"
   id="svg2"
   sodipodi:docname="save.svg"
   inkscape:version="1.3.2 (091e20e, 2023-11-25, custom)"
   xmlns:inkscape="http://www.inkscape.org/namespaces/inkscape"
   xmlns:sodipodi="http://sodipodi.sourceforge.net/DTD/sodipodi-0.dtd"
   xmlns="http://www.w3.org/2000/svg"
   xmlns:svg="http://www.w3.org/2000/svg">
  <defs
     id="defs2" />
  <sodipodi:namedview
     id="namedview2"
     pagecolor="#ffffff"
     bordercolor="#000000"
     borderopacity="0.25"
     inkscape:showpageshadow="2"
     inkscape:pageopacity="0.0"
     inkscape:pagecheckerboard="0"
     inkscape:deskcolor="#d1d1d1"
     inkscape:zoom="17.964932"
     inkscape:cx="-5.0097601"
     inkscape:cy="8.7670802"
     inkscape:window-width="1920"
     inkscape:window-height="1009"
     inkscape:window-x="-8"
     inkscape:window-y="-8"
     inkscape:window-maximized="1"
     inkscape:current-layer="svg2" />
  <g
     id="_01_align_center"
     data-name="01 align center"
     transform="translate(6,6)"
     style="fill:#a7a7a7;fill-opacity:1">
    <path
       d="M 19,0 H 3 A 3,3 0 0 0 0,3 V 24 H 24 V 5 Z M 7,2 H 17 V 6 H 7 Z M 22,22 H 2 V 3 A 1,1 0 0 1 3,2 H 5 V 8 H 19 V 2.828 l 3,3 z"
       id="path1"
       style="fill:#a7a7a7;fill-opacity:1" />
    <path
       d="m 12,10 a 4,4 0 1 0 4,4 4,4 0 0 0 -4,-4 z m 0,6 a 2,2 0 1 1 2,-2 2,2 0 0 1 -2,2 z"
       id="path2"
       style="fill:#a7a7a7;fill-opacity:1" />
  </g>
</svg>
