<?xml version="1.0" encoding="UTF-8" standalone="no"?>
<svg
   id="Layer_1"
   data-name="Layer 1"
   viewBox="0 0 24 24"
   width="20"
   height="20"
   version="1.1"
   sodipodi:docname="sun.svg"
   inkscape:version="1.3.2 (091e20e, 2023-11-25, custom)"
   xmlns:inkscape="http://www.inkscape.org/namespaces/inkscape"
   xmlns:sodipodi="http://sodipodi.sourceforge.net/DTD/sodipodi-0.dtd"
   xmlns="http://www.w3.org/2000/svg"
   xmlns:svg="http://www.w3.org/2000/svg">
  <defs
     id="defs1" />
  <sodipodi:namedview
     id="namedview1"
     pagecolor="#ffffff"
     bordercolor="#000000"
     borderopacity="0.25"
     inkscape:showpageshadow="2"
     inkscape:pageopacity="0.0"
     inkscape:pagecheckerboard="0"
     inkscape:deskcolor="#d1d1d1"
     inkscape:zoom="50.8125"
     inkscape:cx="7.9901599"
     inkscape:cy="8"
     inkscape:window-width="1920"
     inkscape:window-height="1009"
     inkscape:window-x="-8"
     inkscape:window-y="-8"
     inkscape:window-maximized="1"
     inkscape:current-layer="Layer_1" />
  <path
     d="M12,17c-2.76,0-5-2.24-5-5s2.24-5,5-5,5,2.24,5,5-2.24,5-5,5Zm0-9c-2.21,0-4,1.79-4,4s1.79,4,4,4,4-1.79,4-4-1.79-4-4-4Zm.5-3.5V.5c0-.28-.22-.5-.5-.5s-.5,.22-.5,.5V4.5c0,.28,.22,.5,.5,.5s.5-.22,.5-.5Zm0,19v-4c0-.28-.22-.5-.5-.5s-.5,.22-.5,.5v4c0,.28,.22,.5,.5,.5s.5-.22,.5-.5ZM5,12c0-.28-.22-.5-.5-.5H.5c-.28,0-.5,.22-.5,.5s.22,.5,.5,.5H4.5c.28,0,.5-.22,.5-.5Zm19,0c0-.28-.22-.5-.5-.5h-4c-.28,0-.5,.22-.5,.5s.22,.5,.5,.5h4c.28,0,.5-.22,.5-.5Zm-6.15-5.15l3-3c.2-.2,.2-.51,0-.71s-.51-.2-.71,0l-3,3c-.2,.2-.2,.51,0,.71,.1,.1,.23,.15,.35,.15s.26-.05,.35-.15ZM3.85,20.85l3-3c.2-.2,.2-.51,0-.71s-.51-.2-.71,0l-3,3c-.2,.2-.2,.51,0,.71,.1,.1,.23,.15,.35,.15s.26-.05,.35-.15ZM6.85,6.85c.2-.2,.2-.51,0-.71L3.85,3.15c-.2-.2-.51-.2-.71,0s-.2,.51,0,.71l3,3c.1,.1,.23,.15,.35,.15s.26-.05,.35-.15Zm14,14c.2-.2,.2-.51,0-.71l-3-3c-.2-.2-.51-.2-.71,0s-.2,.51,0,.71l3,3c.1,.1,.23,.15,.35,.15s.26-.05,.35-.15Z"
     id="path1"
     style="fill:#d9d9d9;fill-opacity:1" />
</svg>
